<svg width="126.000000" height="46.000000" viewBox="0 0 126 46" fill="none" xmlns="http://www.w3.org/2000/svg" xmlns:xlink="http://www.w3.org/1999/xlink">
	<desc>
			Created with Pixso.
	</desc>
	<defs/>
	<rect id="Frame 10" rx="21.000000" width="122.000000" height="42.000000" transform="translate(2.000000 2.000000)" fill="#0FD6D0" fill-opacity="0"/>
	<path id="Онлайн" d="M18.28 18.98Q17.32 20.92 17.32 23.58Q17.32 26.22 18.3 28.19C18.95 29.49 19.88 30.5 21.08 31.22Q22.91 32.3 25.43 32.3Q27.92 32.3 29.75 31.22C30.96 30.5 31.9 29.49 32.56 28.19C33.23 26.88 33.56 25.34 33.56 23.56C33.56 21.8 33.23 20.27 32.56 18.98C31.9 17.68 30.96 16.68 29.75 15.98C28.53 15.26 27.09 14.9 25.43 14.9C23.75 14.9 22.3 15.26 21.08 15.98Q20.36 16.4 19.76 16.96Q18.87 17.8 18.28 18.98ZM84.81 18.45C85.42 18.7 86.13 18.83 86.93 18.83Q88.5 18.83 89.62 18.11Q89.69 18.06 89.76 18.02C90.54 17.45 91.1 16.64 91.44 15.57L89.97 15.06C89.67 15.8 89.28 16.34 88.8 16.67C88.32 17.01 87.7 17.18 86.95 17.18C86.2 17.18 85.58 17.01 85.1 16.67C84.62 16.32 84.25 15.78 83.97 15.04L82.44 15.57Q82.69 16.55 83.27 17.28Q83.28 17.3 83.3 17.32C83.7 17.8 84.21 18.18 84.81 18.45ZM21.78 28.05C20.96 26.98 20.56 25.49 20.56 23.58Q20.56 20.7 21.78 19.12Q22.1 18.7 22.51 18.39Q23.64 17.54 25.43 17.54Q27.11 17.54 28.23 18.33Q28.69 18.66 29.05 19.12Q30.32 20.7 30.32 23.58C30.32 25.49 29.9 26.98 29.05 28.05C28.2 29.12 27 29.66 25.43 29.66C23.81 29.66 22.6 29.12 21.78 28.05ZM68.04 31.55C68.84 32.05 69.77 32.3 70.83 32.3Q71.89 32.3 72.79 31.92Q73.15 31.76 73.49 31.55C74.05 31.2 74.48 30.75 74.77 30.23L74.79 32.06L77.76 32.06L77.76 22.96C77.76 22.46 77.78 21.96 77.81 21.45C77.86 20.94 77.91 20.43 77.95 19.94L75.07 19.94L74.87 21.94Q74.76 21.73 74.63 21.53Q74.21 20.91 73.51 20.46C72.75 19.95 71.85 19.7 70.83 19.7C69.77 19.7 68.84 19.95 68.04 20.46C67.24 20.96 66.62 21.68 66.17 22.62C65.72 23.55 65.5 24.67 65.5 25.98C65.5 27.3 65.72 28.42 66.17 29.37C66.62 30.31 67.24 31.04 68.04 31.55ZM36.59 19.94L36.59 32.06L39.57 32.06L39.57 26.99L45.04 26.99L45.04 32.06L48.01 32.06L48.01 19.94L45.04 19.94L45.04 24.69L39.57 24.69L39.57 19.94L36.59 19.94ZM50.18 30.04L51.11 32.39C52.2 32.1 53.08 31.62 53.75 30.93C54.43 30.24 54.92 29.31 55.24 28.14C55.56 26.96 55.72 25.5 55.72 23.75L55.72 22.24L59.66 22.24L59.66 32.06L62.63 32.06L62.63 19.94L52.99 19.94L52.99 23.66Q52.99 25.17 52.84 26.27C52.75 26.99 52.59 27.6 52.36 28.1C52.15 28.58 51.87 28.98 51.5 29.3C51.15 29.6 50.71 29.85 50.18 30.04ZM81.26 19.94L81.26 32.06L83.73 32.06L89.9 23.85L89.9 32.06L92.61 32.06L92.61 19.94L90.14 19.94L83.97 28.14L83.97 19.94L81.26 19.94ZM96.03 19.94L96.03 32.06L99 32.06L99 26.99L104.48 26.99L104.48 32.06L107.45 32.06L107.45 19.94L104.48 19.94L104.48 24.69L99 24.69L99 19.94L96.03 19.94ZM73.95 29.01C73.37 29.66 72.61 29.99 71.67 29.99C70.71 29.99 69.94 29.66 69.36 29.01C68.8 28.34 68.52 27.33 68.52 25.98C68.52 24.64 68.81 23.64 69.39 22.98C69.96 22.33 70.72 22 71.67 22C72.61 22 73.37 22.33 73.95 22.98C74.52 23.64 74.81 24.64 74.81 25.98C74.81 27.33 74.52 28.34 73.95 29.01Z" fill="#0E0E0E" fill-opacity="1.000000" fill-rule="evenodd"/>
	<rect id="Frame 10" rx="21.000000" width="122.000000" height="42.000000" transform="translate(2.000000 2.000000)" stroke="#0FD6D0" stroke-opacity="1.000000" stroke-width="4.000000"/>
</svg>
